<?xml version="1.0" encoding="UTF-8"?>
<svg id="Layer_2" data-name="Layer 2" xmlns="http://www.w3.org/2000/svg" viewBox="0 0 447.38 228.63">
  <defs>
    <style>
      .cls-1 {
        fill: #9b90cd;
      }

      .cls-2 {
        fill: #fff;
      }

      .cls-3 {
        fill: #cdd71f;
      }

      .cls-4 {
        fill: #fe6b0c;
      }
    </style>
  </defs>
  <g id="Page_Elements" data-name="Page Elements">
    <g>
      <path class="cls-2" d="M138.8,115.13v-45.8c0-7.62,6.18-13.8,13.8-13.8h0c7.62,0,13.8,6.18,13.8,13.8v45.8c0,21.8,11.59,32.23,28.98,32.23s28.98-10.43,28.98-32.23v-45.8c0-7.62,6.18-13.8,13.8-13.8h0c7.62,0,13.8,6.18,13.8,13.8v45.8c0,38.26-22.72,57.97-56.58,57.97s-56.58-19.48-56.58-57.97Z"/>
      <circle class="cls-1" cx="433.82" cy="130.18" r="13.55"/>
      <circle class="cls-3" cx="431.79" cy="87.93" r="13.55"/>
      <circle class="cls-4" cx="412.79" cy="49.94" r="13.55"/>
      <path class="cls-2" d="M13.57,55.53h.7c5.73,0,10.85,3.61,12.77,9.01l34.39,77.82c.29.82,1.45.82,1.74,0l27.69-77.82c1.92-5.4,7.04-9.01,12.77-9.01h0c9.55,0,16.11,9.62,12.62,18.51l-31.65,80.61c-3.66,9.31-12.64,15.43-22.64,15.43h0c-10,0-18.98-6.12-22.64-15.43L.95,74.04c-3.49-8.89,3.06-18.51,12.62-18.51Z"/>
      <path class="cls-2" d="M288.49,157.85c-24.6-24.6-24.59-60.66.98-86.24,25.58-25.58,61.32-25.25,85.91-.66h0c3.8,3.8,3.8,9.97,0,13.77l-59.52,59.52c14.43,9.18,29.68,6.4,41.15-5.08,7.37-7.37,11.32-14.87,11.65-22.68.13-3.04,1.5-5.89,3.65-8.04h0c8.31-8.31,22.48-1.68,21.4,10.02-1.25,13.53-7.55,26.95-19,38.4-25.58,25.58-61.65,25.58-86.24.98ZM343.8,85.16c1.14-1.14.76-3.05-.71-3.7-12.98-5.72-26-2.05-35.91,7.86-10.21,10.21-13.48,23.12-7.83,35.95.64,1.45,2.57,1.78,3.7.65l40.76-40.76Z"/>
      <path class="cls-2" d="M255.6,48.99c4.61,3.57,11.08,3.17,15.34-.81,26.89-25.11,67.5-32.14,101.97-15.07,6.18,3.06,13.74.25,16.33-6.3,2.31-5.85-.59-12.44-6.24-15.21-43.51-21.32-94.68-12.32-128.51,19.43-5.25,4.92-4.79,13.4.9,17.81l.21.17Z"/>
      <path class="cls-2" d="M244.8,170.13c-4.38,4.25-4.86,11.16-1.04,15.91,8.6,10.7,19.28,20.02,31.86,27.29,17.94,10.36,37.59,15.3,57.03,15.3,37.1,0,73.39-18.03,95.25-50.87,3.66-5.5,2.46-13.08-3.02-16.77-5.49-3.7-12.92-2.21-16.56,3.3-26.32,39.88-79.4,52.38-120.82,28.46-9.97-5.76-18.42-13.14-25.23-21.62-4.36-5.43-12.48-5.86-17.48-1h0Z"/>
    </g>
  </g>
</svg>